<?xml version="1.0" standalone="no"?>
<!DOCTYPE svg PUBLIC "-//W3C//DTD SVG 20010904//EN"
 "http://www.w3.org/TR/2001/REC-SVG-20010904/DTD/svg10.dtd">
<svg version="1.0" xmlns="http://www.w3.org/2000/svg"
 width="325.000000pt" height="325.000000pt" viewBox="0 0 325.000000 325.000000"
 preserveAspectRatio="xMidYMid meet">
<metadata>
Created by potrace 1.11, written by Peter Selinger 2001-2013
</metadata>
<g transform="translate(0.000000,325.000000) scale(0.100000,-0.100000)"
fill="#000000" stroke="none">
<path d="M1541 3174 c-83 -22 -1158 -687 -1227 -759 -92 -95 -89 -67 -89 -770
0 -568 1 -614 19 -663 35 -102 71 -129 682 -506 636 -392 636 -392 754 -362
91 23 1159 681 1236 761 92 95 89 67 89 770 0 568 -1 614 -19 663 -35 102 -71
129 -681 505 -642 396 -639 395 -764 361z m300 -384 c591 -121 994 -656 938
-1247 -47 -495 -394 -908 -866 -1029 -389 -100 -797 4 -1086 276 -323 304
-445 723 -336 1153 108 426 482 772 921 852 115 21 313 19 429 -5z"/>
<path d="M1437 2726 c-777 -138 -1164 -1020 -735 -1678 107 -164 244 -288 418
-377 120 -62 166 -76 203 -62 l27 11 0 569 0 569 -47 6 c-92 13 -103 17 -103
37 0 18 9 19 178 19 l178 0 123 -317 c68 -175 160 -410 204 -522 l80 -204 207
519 207 519 162 3 161 2 -6 28 c-52 232 -150 417 -305 571 -140 141 -309 236
-507 287 -122 32 -327 41 -445 20z"/>
<path d="M2665 1775 c-5 -2 -31 -6 -57 -10 l-48 -6 1 -337 1 -337 44 92 c72
149 96 258 98 443 1 159 -1 168 -39 155z"/>
<path d="M1390 1174 l0 -560 78 -32 c67 -27 91 -32 163 -32 73 0 196 14 205
23 3 3 -434 1149 -442 1156 -2 2 -4 -248 -4 -555z"/>
<path d="M2163 1170 c-117 -294 -215 -544 -219 -554 -6 -17 -4 -18 22 -12 87
22 281 134 377 218 l38 33 -3 425 -3 424 -212 -534z"/>
</g>
</svg>
